<svg version="1.2" xmlns="http://www.w3.org/2000/svg" viewBox="0 0 32 32" width="32" height="32">
	<style>
		.s0 { fill: #ffffff } 
	</style>
	<path class="s0" d="m7.76 14.48c3.76-0.62 6.71-3.73 7.33-7.5l0.21-1.82c0.05-0.28-0.14-0.69-0.51-0.66-2.84 0.23-5.53 1.17-7.02 1.78-0.74 0.3-1.22 1.02-1.22 1.82v5.92c0 0.34 0.31 0.61 0.66 0.56l0.55-0.09z"/>
	<path class="s0" d="m16.91 6.98c0.62 3.77 3.57 6.88 7.33 7.5l0.55 0.09c0.35 0.06 0.66-0.2 0.66-0.56v-5.91c0-0.8-0.48-1.52-1.22-1.83-1.5-0.61-4.18-1.55-7.02-1.77-0.37-0.03-0.55 0.38-0.51 0.66l0.21 1.81z"/>
	<path class="s0" d="m24.24 16.14c-5.15 1.02-7.53 4.44-7.53 10.93 0 0.32 0.32 0.55 0.59 0.37 2.37-1.6 7.57-5.77 8.11-10.99 0.02-0.66-0.8-0.35-1.17-0.31z"/>
	<path class="s0" d="m7.76 16.14c5.14 1.02 7.53 4.44 7.53 10.93 0 0.32-0.32 0.55-0.59 0.37-2.37-1.6-7.57-5.77-8.11-10.99-0.02-0.66 0.8-0.35 1.17-0.31z"/>
</svg>