<?xml version="1.0" encoding="utf-8"?>
<!-- Generator: Adobe Illustrator 26.0.1, SVG Export Plug-In . SVG Version: 6.00 Build 0)  -->
<svg version="1.1" id="Layer_1" xmlns="http://www.w3.org/2000/svg" xmlns:xlink="http://www.w3.org/1999/xlink" x="0px" y="0px"
	 viewBox="0 0 64 64" style="enable-background:new 0 0 64 64;" xml:space="preserve">
<style type="text/css">
	.st0{fill:url(#SVGID_1_);}
	.st1{fill:#FFFFFF;}
</style>
<linearGradient id="SVGID_1_" gradientUnits="userSpaceOnUse" x1="0" y1="34" x2="64" y2="34" gradientTransform="matrix(1 0 0 -1 0 66)">
	<stop  offset="0" style="stop-color:#635DFF"/>
	<stop  offset="1" style="stop-color:#3885FF"/>
</linearGradient>
<circle class="st0" cx="32" cy="32" r="32"/>
<g>
	<path class="st1" d="M19.2,31.6c5.9-1,10.5-5.9,11.5-11.8L31,17c0.1-0.5-0.2-1.1-0.8-1c-4.5,0.3-8.7,1.8-11,2.8
		c-1.2,0.5-1.9,1.6-1.9,2.9v9.3c0,0.5,0.5,1,1,0.9L19.2,31.6L19.2,31.6z"/>
	<path class="st1" d="M33.5,19.9c1,5.9,5.6,10.8,11.5,11.8l0.9,0.1c0.5,0.1,1-0.3,1-0.9v-9.3c0-1.3-0.8-2.4-1.9-2.9
		c-2.3-1-6.5-2.4-11-2.8c-0.6,0-0.9,0.6-0.8,1L33.5,19.9L33.5,19.9z"/>
	<path class="st1" d="M45,34.2c-8.1,1.6-11.8,7-11.8,17.1c0,0.5,0.5,0.9,0.9,0.6c3.7-2.5,11.9-9,12.7-17.2
		C46.9,33.7,45.6,34.2,45,34.2z"/>
	<path class="st1" d="M19.2,34.2c8.1,1.6,11.8,7,11.8,17.1c0,0.5-0.5,0.9-0.9,0.6c-3.7-2.5-11.9-9-12.7-17.2
		C17.4,33.7,18.6,34.2,19.2,34.2z"/>
</g>
</svg>
