<svg version="1.2" xmlns="http://www.w3.org/2000/svg" viewBox="0 0 72 80" width="72" height="80"><style>tspan{white-space:pre}</style><path  d="m57.3-0.1h-37.2q0 0 0 0c-5 0-9.1 4.1-9.1 9.2v54.6c0 5.1 4 9.2 9.1 9.2h41.8c5 0 9.1-4.1 9.1-9.2v-49.9c0-0.6-0.1-1.2-0.6-1.6l-11.6-11.7c-0.4-0.4-0.9-0.6-1.5-0.6zm-54.3 7.2c-1.1 0-2 0.9-2 2v61.8c0 5.1 4 9.2 9 9.2h49c1.1 0 2-0.9 2-2 0-1.2-0.9-2.1-2-2.1h-49c-2.7 0-5-2.2-5-5.1v-61.8c0-1.1-0.9-2-2-2zm54 27.3c1.1 0 2 0.9 2 2 0 1.1-0.9 2-2 2h-32c-1.1 0-2-0.9-2-2 0-1.1 0.9-2 2-2h32q0 0 0 0zm0 13.3c1.1 0 2 0.9 2 2 0 1.1-0.9 2-2 2h-32c-1.1 0-2-0.9-2-2 0-1.1 0.9-2 2-2zm-0.5-43.7l10.5 10.5c-4.4 0-5.4 0-5.4 0-2.8 0-5.1-2.3-5.1-5.1zm-16.8 17.1c1.1 0 2 0.9 2 2 0 1.1-0.9 2-2 2h-14.7c-1.1 0-2-0.9-2-2 0-1.1 0.9-2 2-2z"/></svg>