<svg version="1.2" xmlns="http://www.w3.org/2000/svg" viewBox="0 0 93 98" width="93" height="98"><style>.a{fill:#f3bd09}</style><path class="a" d="m57.4 29.6c0 1.2-1.1 2.3-2.3 2.3-1.3 0-2.3-1.1-2.3-2.3v-25h-47.3v88.8h47.3v-25c0-1.3 1-2.3 2.3-2.3 1.2 0 2.3 1 2.3 2.3v27.3c0 1.2-1.1 2.3-2.3 2.3h-51.9c-1.2 0-2.3-1.1-2.3-2.3v-93.4c0-1.2 1.1-2.3 2.3-2.3h51.9c1.2 0 2.3 1.1 2.3 2.3zm27.8 21.7h-48c-1.2 0-2.3-1-2.3-2.3 0-1.2 1.1-2.3 2.3-2.3h48l-13.4-13.3c-0.9-0.9-0.9-2.4 0-3.3 1-0.9 2.4-0.9 3.3 0l17.3 17.3c0.9 0.9 0.9 2.4 0 3.3l-17.3 17.3c-0.9 0.9-2.3 0.9-3.2 0-0.9-1-0.9-2.4 0-3.3z"/></svg>