<?xml version="1.0" encoding="UTF-8"?>
<svg id="Logos" xmlns="http://www.w3.org/2000/svg" viewBox="0 0 3040.68 1184.71">
  <defs>
    <style>
      .cls-1 {
        fill: #fff;
      }
    </style>
  </defs>
  <g>
    <path class="cls-1" d="M1048.41,690.3c0-82.24,68.23-113.31,154.12-113.31h83.46c6.09,0,9.14-3.05,9.14-9.14v-12.79c0-44.47-33.5-65.79-82.85-65.79-38.38,0-64.57,12.8-78.59,40.21-4.87,9.75-9.14,13.4-19.49,13.4h-35.94c-11.57,0-17.06-6.09-17.06-15.23,0-4.27,1.22-10.36,6.09-20.71,23.15-48.12,68.23-79.19,152.3-79.19,93.81,0,149.25,41.43,149.25,132.19v150.47c0,15.23,5.48,18.89,18.27,18.89h.61c12.18,0,18.27,6.09,18.27,18.27v30.46c0,12.18-6.09,18.27-18.27,18.27h-21.32c-34.73,0-52.39-9.14-63.36-32.9-1.83-4.27-3.05-5.48-5.48-5.48s-4.27,1.22-9.14,5.48c-27.41,24.37-61.53,37.16-107.22,37.16-69.45,0-132.8-32.29-132.8-110.26ZM1295.13,648.87v-6.09c0-6.09-3.05-9.14-9.14-9.14h-91.38c-42.64,0-72.49,15.84-72.49,53.61s30.46,53.61,67.01,53.61c56.66,0,106-35.34,106-91.99Z"/>
    <path class="cls-1" d="M1436.46,637.3v-187.02c0-12.18,6.09-18.27,18.27-18.27h37.16c12.18,0,18.27,6.09,18.27,18.27v180.32c0,58.48,21.32,101.73,82.24,101.73,64.58,0,95.03-51.17,95.03-110.26v-171.8c0-12.18,6.09-18.27,18.27-18.27h37.16c12.18,0,18.27,6.09,18.27,18.27v327.75c0,12.18-6.09,18.27-18.27,18.27h-33.5c-10.97,0-17.06-5.48-18.89-16.45l-3.05-16.45c-.61-3.66-2.44-5.48-5.48-5.48-2.43,0-4.26,1.22-7.3,4.27-24.98,22.54-55.44,38.38-100.52,38.38-95.64,0-137.68-68.84-137.68-163.26Z"/>
    <path class="cls-1" d="M1829.39,697v-369.17c0-12.18,6.09-18.27,18.27-18.27h37.16c12.18,0,18.27,6.09,18.27,18.27v95.03c0,6.09,3.05,9.14,9.14,9.14h107.83c12.18,0,18.27,6.09,18.27,18.27v30.46c0,12.18-6.09,18.28-18.27,18.28h-107.83c-6.09,0-9.14,3.05-9.14,9.14v182.15c0,26.8,12.18,38.99,39.59,38.99h84.68c12.18,0,18.27,6.09,18.27,18.27v30.46c0,12.18-6.09,18.27-18.27,18.27h-88.33c-76.15,0-109.65-30.46-109.65-99.3Z"/>
    <path class="cls-1" d="M2096.21,778.02v-450.19c0-12.18,6.09-18.27,18.27-18.27h37.16c12.18,0,18.27,6.09,18.27,18.27v141.94c0,3.66,2.43,6.09,5.48,6.09,1.83,0,3.65-.61,9.14-5.48,26.8-24.37,56.04-42.64,105.39-42.64,95.03,0,137.68,67.01,137.68,165.7v184.59c0,12.18-6.09,18.27-18.27,18.27h-37.16c-12.18,0-18.27-6.09-18.27-18.27v-180.93c0-56.66-21.93-101.13-81.63-101.13-63.97,0-102.34,51.78-102.34,124.89v157.17c0,12.18-6.09,18.27-18.27,18.27h-37.16c-12.18,0-18.27-6.09-18.27-18.27Z"/>
    <path class="cls-1" d="M2473.9,553.23c0-165.09,63.96-247.94,178.49-247.94s178.48,82.85,178.48,247.94-63.96,247.33-178.48,247.33-178.49-82.85-178.49-247.33ZM2563.45,608.67l161.44-179.1c2.44-3.05,3.65-4.87,3.65-9.14,0-3.05-.61-6.7-4.87-12.19-16.45-20.1-39.59-34.72-71.27-34.72-67.01,0-104.78,60.92-104.78,180.32,0,17.05.61,32.29,3.05,53,.61,3.66,2.43,6.09,5.48,6.09,1.83,0,4.27-.61,7.31-4.26ZM2757.17,552.01c0-17.06-.61-32.29-3.05-53-.61-3.66-2.43-6.09-5.48-6.09-1.83,0-4.27.61-7.31,4.27l-161.44,179.1c-2.43,3.05-3.65,4.87-3.65,9.14,0,3.05.61,6.7,4.87,12.18,16.45,20.1,39.59,34.72,71.28,34.72,67.01,0,104.77-60.92,104.77-180.32Z"/>
  </g>
  <g>
    <path class="cls-1" d="M250.19,536.56c125.44-20.65,223.75-118.97,244.41-244.41l10.05-61c1.93-11.8-7.76-22.21-19.69-21.3-95.51,7.39-185.52,39.01-235.23,59.39-24.14,9.91-39.93,33.37-39.93,59.48v192.82c0,11.34,10.14,19.97,21.34,18.13,0,0,19.05-3.12,19.05-3.12Z"/>
    <path class="cls-1" d="M555.1,292.16c20.65,125.44,118.97,223.75,244.41,244.41l19.05,3.12c11.2,1.84,21.34-6.79,21.34-18.13v-192.82c0-26.12-15.79-49.57-39.93-59.48-49.71-20.42-139.76-52-235.23-59.39-11.93-.92-21.66,9.46-19.69,21.3l10.05,61Z"/>
    <path class="cls-1" d="M799.5,597.01c-125.44,20.65-223.75,118.97-244.41,244.41l-12.53,119.06c-1.15,10.74,10.79,18.31,19.78,12.3.09-.05.14-.09.23-.14,78.67-53.06,258.13-191.95,275.89-365.44.87-8.54-6.7-15.51-15.15-14.14l-23.78,3.9-.05.05Z"/>
    <path class="cls-1" d="M494.6,841.42c-20.65-125.44-118.97-223.75-244.41-244.41l-25.57-4.22c-7.53-1.24-14.27,5-13.54,12.62,16.84,174.46,198.78,314.22,278.14,367.37h0c8.22,5.46,19.09-1.1,18.04-10.92l-12.67-120.44Z"/>
  </g>
</svg>