<svg version="1.2" xmlns="http://www.w3.org/2000/svg" viewBox="0 0 3359 3359" width="3359" height="3359">
	<style>
		tspan { white-space:pre } 
		.s0 { fill: #000000 } 
		.s1 { fill: none } 
	</style>
	<g>
		<path fill-rule="evenodd" class="s0" d="m2960 2279.5l-1023-746.5-21.5-15.5 4-26c3.5-21 6-43.5 8-67 2-22 2.5-44.5 2.5-67.5 0-222-86-423-224.5-568-138.5-144.5-329.5-234-540.5-234-61.5 0-121 7.5-178 22-36.5 9-72 21-106 35.5l310 236.5 17 13v21 437.5 31l-29.5 9.5-445 147-21.5 7-18-14-290.5-221.5v2.5c-2 24.5-3.5 49.5-3.5 74.5 0 222 86 423 224.5 568 138.5 144.5 329.5 234 540.5 234 64 0 126-8 185-23.5 61-16 119.5-39.5 173.5-70l24-13.5 22 16 1007.5 735 382.5-524.5z"/>
	</g>
	<path fill-rule="evenodd" class="s1" d="m0 0h3360v3360h-3360z"/>
</svg>